HIERARCHY
ROOT Hips
{
 OFFSET 0.000000 0.000000 0.000000
 CHANNELS 6 Xposition Yposition Zposition Yrotation Xrotation Zrotation
 JOINT Chest
 {
  OFFSET 0.000000 9.588913 -0.003946
  CHANNELS 3 Yrotation Xrotation Zrotation
  JOINT Chest2
  {
   OFFSET 0.000000 9.541882 0.008053
   CHANNELS 3 Yrotation Xrotation Zrotation
   JOINT Chest3
   {
    OFFSET 0.000000 9.501360 0.000000
    CHANNELS 3 Yrotation Xrotation Zrotation
    JOINT Chest4
    {
     OFFSET 0.000000 9.491660 0.000000
     CHANNELS 3 Yrotation Xrotation Zrotation
     JOINT Neck
     {
      OFFSET 0.000000 14.331917 0.000000
      CHANNELS 3 Yrotation Xrotation Zrotation
      JOINT Head
      {
       OFFSET 0.000000 8.884799 0.017034
       CHANNELS 3 Yrotation Xrotation Zrotation
       End Site
       {
        OFFSET 0.000000 16.896195 0.008993
       }
      }
     }
     JOINT RightCollar
     {
      OFFSET -2.923010 9.499495 0.000000
      CHANNELS 3 Yrotation Xrotation Zrotation
      JOINT RightShoulder
      {
       OFFSET -13.795216 0.000000 0.000000
       CHANNELS 3 Yrotation Xrotation Zrotation
       JOINT RightElbow
       {
        OFFSET -30.272209 0.000000 0.000000
        CHANNELS 3 Yrotation Xrotation Zrotation
        JOINT RightWrist
        {
         OFFSET -24.478199 0.000000 0.000000
         CHANNELS 3 Yrotation Xrotation Zrotation
         End Site
         {
          OFFSET -18.090752 0.000000 0.000000
         }
        }
       }
      }
     }
     JOINT LeftCollar
     {
      OFFSET 2.923010 9.499495 0.000000
      CHANNELS 3 Yrotation Xrotation Zrotation
      JOINT LeftShoulder
      {
       OFFSET 13.795216 0.000000 0.000000
       CHANNELS 3 Yrotation Xrotation Zrotation
       JOINT LeftElbow
       {
        OFFSET 30.272209 0.000000 0.000000
        CHANNELS 3 Yrotation Xrotation Zrotation
        JOINT LeftWrist
        {
         OFFSET 24.478199 0.000000 0.000000
         CHANNELS 3 Yrotation Xrotation Zrotation
         End Site
         {
          OFFSET 18.090752 0.000000 0.000000
         }
        }
       }
      }
     }
    }
   }
  }
 }
 JOINT RightHip
 {
  OFFSET -7.826875 0.019532 0.001973
  CHANNELS 3 Yrotation Xrotation Zrotation
  JOINT RightKnee
  {
   OFFSET 0.000000 -40.546152 -0.001885
   CHANNELS 3 Yrotation Xrotation Zrotation
   JOINT RightAnkle
   {
    OFFSET 0.000000 -39.417092 -0.003189
    CHANNELS 3 Yrotation Xrotation Zrotation
    JOINT RightToe
    {
     OFFSET 0.000000 -7.579396 17.243563
     CHANNELS 3 Yrotation Xrotation Zrotation
     End Site
     {
      OFFSET 0.000000 -1.500329 6.694466
     }
    }
   }
  }
 }
 JOINT LeftHip
 {
  OFFSET 7.826875 0.019532 0.001973
  CHANNELS 3 Yrotation Xrotation Zrotation
  JOINT LeftKnee
  {
   OFFSET 0.000000 -40.546152 -0.001885
   CHANNELS 3 Yrotation Xrotation Zrotation
   JOINT LeftAnkle
   {
    OFFSET 0.000000 -39.417092 -0.003189
    CHANNELS 3 Yrotation Xrotation Zrotation
    JOINT LeftToe
    {
     OFFSET 0.000000 -7.579396 17.243563
     CHANNELS 3 Yrotation Xrotation Zrotation
     End Site
     {
      OFFSET 0.000000 -1.500329 6.694466
     }
    }
   }
  }
 }
}
MOTION
Frames: 11
Frame Time: 0.008333
33.085708 88.872828 -35.658450 -56.548236 -4.124658 -3.502481 -2.335918 4.960177 1.012034 -1.402835 2.738988 0.690204 -1.748864 3.426296 0.852489 -1.402818 2.738986 0.690203 -13.992467 24.221448 3.304498 -16.869164 1.918389 7.030366 1.025684 3.003027 -7.333349 4.860664 -7.015886 89.222944 13.712971 7.317359 5.387556 1.935732 -0.295914 -1.008615 7.564682 -3.804644 -1.582952 8.829148 -3.100887 -64.236379 -18.094838 16.035841 0.507266 -3.128560 2.339229 13.024637 -20.941121 3.097355 -5.459310 -1.534875 10.117391 -1.456939 -10.523325 -6.073600 8.555883 -0.059845 -0.454601 -0.960413 32.443196 -6.910718 10.672515 28.035210 9.114954 14.456301 3.076774 3.935073 -8.704048 0.142221 -1.383932 -1.551923
32.708867 88.828786 -36.409432 -57.588543 -4.334701 -3.831135 -2.333546 4.980932 1.234401 -1.398441 2.767168 0.696122 -1.743284 3.461534 0.859819 -1.398428 2.767166 0.696121 -13.805626 24.259511 3.367322 -16.653780 1.939692 7.055283 1.073168 3.024753 -7.424381 5.151863 -7.159551 89.271154 13.109024 7.031237 5.282572 1.847692 -0.308527 -0.925400 7.665964 -3.841179 -1.482363 9.563052 -2.891382 -63.956702 -18.106052 16.308434 0.722711 -1.853316 2.620320 13.142290 -20.109055 3.252639 -4.700540 -1.436373 10.161729 -1.257991 -10.345382 -6.068541 7.974908 -0.062081 -0.428000 -0.841973 32.177022 -7.473379 11.588038 28.419538 9.548868 15.125279 3.056035 4.877653 -8.879031 0.299755 -1.515385 -1.687153
32.308406 88.773807 -37.182734 -58.689181 -4.555131 -4.151290 -2.301134 5.031884 1.445037 -1.395640 2.784870 0.695970 -1.739761 3.483656 0.859586 -1.395635 2.784869 0.695970 -13.604165 24.294388 3.430522 -16.420778 1.954705 7.076873 1.113620 3.035146 -7.515408 5.507041 -7.327309 89.310138 12.487671 6.778822 5.182124 1.745098 -0.325232 -0.828271 7.770906 -3.870382 -1.366625 10.280968 -2.621369 -63.669925 -18.162859 16.569828 0.912062 -0.606634 2.854463 13.170022 -19.291008 3.465799 -3.936436 -1.302181 10.116688 -1.070426 -10.147155 -6.093959 7.396181 -0.073709 -0.360028 -0.752311 31.875400 -7.996077 12.558960 28.858782 9.962010 15.775078 2.911802 5.901316 -8.968142 0.488997 -1.669741 -1.868471
31.891324 88.707962 -38.007125 -59.780948 -4.666369 -4.625789 -2.295728 5.015465 1.808951 -1.396071 2.787554 0.691472 -1.740335 3.486996 0.853949 -1.396075 2.787555 0.691472 -13.388413 24.327287 3.490170 -16.169605 1.964671 7.090627 1.143968 3.030891 -7.603940 5.915597 -7.514924 89.335932 11.851857 6.579328 5.076291 1.624192 -0.336173 -0.719351 7.881655 -3.890887 -1.246075 10.999482 -2.305628 -63.383944 -18.259332 16.801730 1.063318 0.577614 3.042569 13.121677 -18.507069 3.681310 -2.962720 -1.121813 9.973280 -0.892715 -9.958323 -6.070321 6.814514 -0.094985 -0.324804 -0.692280 31.456681 -8.654056 13.652677 29.322534 10.366011 16.412746 2.661586 6.857932 -8.949423 0.726568 -1.723111 -2.106161
31.469143 88.630760 -38.854783 -60.884447 -4.716057 -5.130381 -2.295802 4.968700 2.206934 -1.399791 2.776192 0.682293 -1.745079 3.472767 0.842485 -1.399802 2.776195 0.682294 -13.162678 24.358520 3.546302 -15.905757 1.970817 7.097684 1.159884 3.007443 -7.684559 6.351254 -7.714948 89.349548 11.212068 6.454969 4.961545 1.479786 -0.334747 -0.605353 7.993868 -3.897790 -1.125935 11.741364 -1.975609 -63.100261 -18.385761 17.014976 1.163580 1.667593 3.190135 13.026154 -17.707318 3.880360 -1.924286 -0.910644 9.774478 -0.732528 -9.790220 -6.046241 6.263065 -0.125830 -0.294497 -0.662585 30.939945 -9.336682 14.786818 29.755144 10.815422 17.043248 2.394986 7.725428 -8.756859 0.952825 -1.703151 -2.450256
31.047238 88.543031 -39.695445 -62.034341 -4.791958 -5.560618 -2.264323 4.951858 2.537738 -1.405641 2.756625 0.667770 -1.752535 3.448265 0.824353 -1.405657 2.756628 0.667770 -12.930588 24.389269 3.599959 -15.634150 1.975417 7.100175 1.160820 2.964874 -7.752145 6.779847 -7.912151 89.352572 10.592867 6.434326 4.841844 1.310023 -0.330262 -0.494274 8.104196 -3.888502 -1.009219 12.520034 -1.645086 -62.809818 -18.544850 17.214080 1.198804 2.636223 3.308446 12.908625 -16.842814 4.094969 -0.960870 -0.708182 9.561661 -0.585334 -9.618978 -6.087386 5.751248 -0.163970 -0.227535 -0.656396 30.341756 -9.908801 15.912487 30.085444 11.383764 17.673367 2.131913 8.492673 -8.350821 1.166435 -1.681340 -2.933308
30.635612 88.446811 -40.511635 -63.229461 -4.916935 -5.881097 -2.201928 4.971452 2.766562 -1.412100 2.733495 0.648514 -1.760789 3.419291 0.800315 -1.412117 2.733498 0.648515 -12.694459 24.420308 3.651507 -15.357822 1.979915 7.099119 1.150973 2.907993 -7.804417 7.166284 -8.092795 89.344532 10.020597 6.525886 4.725386 1.118134 -0.320841 -0.395633 8.216930 -3.866272 -0.896420 13.311617 -1.316037 -62.516523 -18.724809 17.394804 1.176817 3.463390 3.405111 12.788800 -15.927063 4.325150 -0.123689 -0.539545 9.355824 -0.437308 -9.424355 -6.214344 5.263327 -0.204163 -0.108893 -0.662245 29.631836 -10.314816 16.996491 30.274618 12.094169 18.307719 1.884221 9.165381 -7.697053 1.361021 -1.704592 -3.568606
30.244059 88.347007 -41.307139 -64.444726 -5.055184 -6.182956 -2.130116 4.992142 2.980651 -1.416379 2.708894 0.627621 -1.766330 3.388466 0.774250 -1.416396 2.708895 0.627621 -12.459543 24.452129 3.700655 -15.083184 1.985804 7.095534 1.131809 2.843799 -7.843680 7.480170 -8.248045 89.325238 9.510676 6.723416 4.620110 0.914083 -0.291287 -0.322150 8.340331 -3.827090 -0.782606 14.081896 -0.995759 -62.245109 -18.905223 17.563022 1.120328 4.142810 3.483456 12.689882 -15.021261 4.558541 0.685425 -0.399195 9.151488 -0.287560 -9.175777 -6.367637 4.777762 -0.242477 0.018605 -0.671177 28.742009 -10.603318 18.088909 30.326578 12.937162 18.950214 1.623135 9.707579 -6.821556 1.558371 -1.744250 -4.312019
29.883068 88.248915 -42.068210 -65.685244 -5.214438 -6.462148 -2.048054 5.017319 3.169262 -1.414778 2.685892 0.609451 -1.764491 3.359640 0.751628 -1.414792 2.685889 0.609450 -12.231984 24.482097 3.747732 -14.817804 1.990818 7.091408 1.098163 2.776245 -7.872109 7.705620 -8.369659 89.289325 9.080603 7.020828 4.536234 0.705172 -0.236079 -0.283010 8.471573 -3.771681 -0.672093 14.823781 -0.687778 -62.016592 -19.074376 17.732250 1.054037 4.677596 3.546475 12.632676 -14.153603 4.788024 1.455443 -0.263668 8.962012 -0.144738 -8.863426 -6.526187 4.297476 -0.275235 0.144698 -0.676468 27.660182 -10.739550 19.179901 30.248228 13.921383 19.601117 1.310225 10.107100 -5.818200 1.760427 -1.802375 -5.071874
29.568045 88.156243 -42.764210 -66.951496 -5.401444 -6.602307 -1.962579 5.056884 3.216305 -1.406637 2.665451 0.595819 -1.754437 3.334022 0.734719 -1.406650 2.665445 0.595817 -12.015884 24.504933 3.793720 -14.566781 1.989062 7.088966 1.055006 2.708698 -7.893285 7.832606 -8.457140 89.234649 8.743529 7.403577 4.479110 0.496544 -0.158130 -0.282323 8.607840 -3.709641 -0.575583 15.526375 -0.396366 -61.843798 -19.217499 17.906321 0.998506 5.081768 3.599283 12.635495 -13.330662 4.975890 2.057049 -0.103909 8.817299 -0.011687 -8.532841 -6.728014 3.838835 -0.298974 0.309291 -0.671076 26.409053 -10.642782 20.157681 30.021425 15.080248 20.243808 0.900212 10.360085 -4.878827 1.920610 -1.919436 -5.694845
29.314429 88.074287 -43.401475 -68.176843 -5.508195 -6.683703 -1.938834 5.025238 3.210876 -1.393079 2.646878 0.585059 -1.737587 3.310743 0.721432 -1.393090 2.646869 0.585057 -11.814823 24.516535 3.837893 -14.334068 1.975833 7.088306 1.018106 2.642496 -7.909366 7.856538 -8.513613 89.160604 8.491417 7.832166 4.443755 0.307697 -0.074844 -0.314593 8.750297 -3.650984 -0.501035 16.173585 -0.125375 -61.738055 -19.317815 18.082342 0.968535 5.383856 3.641074 12.707411 -12.593588 5.038440 2.585896 0.108286 8.708637 0.115469 -8.227931 -6.901026 3.394818 -0.314814 0.463089 -0.649329 24.909364 -10.429645 21.023509 29.632497 16.455114 20.860683 0.399447 10.318765 -4.200212 1.951728 -2.005744 -6.039578
